<?xml version="1.0" encoding="UTF-8" standalone="no"?>
<!-- Created with Inkscape (http://www.inkscape.org/) -->

<svg
   xmlns:dc="http://purl.org/dc/elements/1.1/"
   xmlns:cc="http://creativecommons.org/ns#"
   xmlns:rdf="http://www.w3.org/1999/02/22-rdf-syntax-ns#"
   xmlns:svg="http://www.w3.org/2000/svg"
   xmlns="http://www.w3.org/2000/svg"
   xmlns:sodipodi="http://sodipodi.sourceforge.net/DTD/sodipodi-0.dtd"
   xmlns:inkscape="http://www.inkscape.org/namespaces/inkscape"
   id="svg2"
   version="1.1"
   inkscape:version="0.48.1 r9760"
   width="303.56534"
   height="303.50037"
   sodipodi:docname="skate.svg"
   inkscape:export-filename="/home/neale/src/scoreboard/skate.png"
   inkscape:export-xdpi="169.39999"
   inkscape:export-ydpi="169.39999">
  <metadata
     id="metadata8">
    <rdf:RDF>
      <cc:Work
         rdf:about="">
        <dc:format>image/svg+xml</dc:format>
        <dc:type
           rdf:resource="http://purl.org/dc/dcmitype/StillImage" />
        <dc:title></dc:title>
      </cc:Work>
    </rdf:RDF>
  </metadata>
  <defs
     id="defs6" />
  <sodipodi:namedview
     pagecolor="#ffffff"
     bordercolor="#666666"
     borderopacity="1"
     objecttolerance="10"
     gridtolerance="10"
     guidetolerance="10"
     inkscape:pageopacity="0"
     inkscape:pageshadow="2"
     inkscape:window-width="697"
     inkscape:window-height="1005"
     id="namedview4"
     showgrid="false"
     inkscape:object-paths="false"
     inkscape:object-nodes="false"
     inkscape:zoom="0.98994949"
     inkscape:cx="288.95066"
     inkscape:cy="86.996206"
     inkscape:window-x="0"
     inkscape:window-y="15"
     inkscape:window-maximized="0"
     inkscape:current-layer="svg2"
     fit-margin-top="0"
     fit-margin-left="0"
     fit-margin-right="0"
     fit-margin-bottom="0" />
  <path
     sodipodi:type="arc"
     style="fill:#008080;fill-opacity:1;stroke:#000000;stroke-width:1;stroke-linecap:butt;stroke-linejoin:round;stroke-miterlimit:4;stroke-opacity:1;stroke-dasharray:none"
     id="path3927"
     sodipodi:cx="57.326157"
     sodipodi:cy="56.714455"
     sodipodi:rx="72.478447"
     sodipodi:ry="72.478447"
     d="m 129.8046,56.714455 a 72.478447,72.478447 0 1 1 -144.95689,0 72.478447,72.478447 0 1 1 144.95689,0 z"
     transform="matrix(2.0796598,0,0,2.0796598,32.559674,33.794472)"
     inkscape:export-filename="/home/neale/src/scoreboard/path3929.png"
     inkscape:export-xdpi="59.299999"
     inkscape:export-ydpi="59.299999" />
  <g
     id="g3883"
     transform="matrix(2.0796598,0,0,2.0796598,141.5373,47.186908)"
     inkscape:export-filename="/home/neale/src/scoreboard/path3929.png"
     inkscape:export-xdpi="59.299999"
     inkscape:export-ydpi="59.299999">
    <path
       sodipodi:nodetypes="ccc"
       inkscape:connector-curvature="0"
       id="path3885"
       d="m 32.922831,60.690256 6.529024,0.144477 c 8.845631,2.909445 11.470011,24.53145 -4.455024,25.7112"
       style="fill:#ffffff;fill-opacity:1;stroke:#000000;stroke-width:1px;stroke-linecap:butt;stroke-linejoin:miter;stroke-opacity:1" />
    <path
       transform="translate(-31.181031,-9.1652675)"
       sodipodi:type="arc"
       style="fill:#ffffff;fill-opacity:1;stroke:#000000;stroke-width:1;stroke-linecap:butt;stroke-linejoin:round;stroke-miterlimit:4;stroke-opacity:1;stroke-dasharray:none"
       id="path3887"
       sodipodi:cx="63.392857"
       sodipodi:cy="83.035713"
       sodipodi:rx="9.8214283"
       sodipodi:ry="13.214286"
       d="m 73.214285,83.035713 c 0,7.298049 -4.397203,13.214286 -9.821428,13.214286 -5.424225,0 -9.821429,-5.916237 -9.821429,-13.214286 0,-7.298048 4.397204,-13.214286 9.821429,-13.214286 5.424225,0 9.821428,5.916238 9.821428,13.214286 z" />
  </g>
  <g
     id="g3810"
     transform="matrix(2.0796598,0,0,2.0796598,39.912372,35.89525)"
     inkscape:export-filename="/home/neale/src/scoreboard/path3929.png"
     inkscape:export-xdpi="59.299999"
     inkscape:export-ydpi="59.299999">
    <path
       style="fill:#ffffff;fill-opacity:1;stroke:#000000;stroke-width:1px;stroke-linecap:butt;stroke-linejoin:miter;stroke-opacity:1"
       d="m 32.922831,60.690256 6.529024,0.144477 c 8.845631,2.909445 11.470011,24.53145 -4.455024,25.7112"
       id="path3804"
       inkscape:connector-curvature="0"
       sodipodi:nodetypes="ccc" />
    <path
       d="m 73.214285,83.035713 c 0,7.298049 -4.397203,13.214286 -9.821428,13.214286 -5.424225,0 -9.821429,-5.916237 -9.821429,-13.214286 0,-7.298048 4.397204,-13.214286 9.821429,-13.214286 5.424225,0 9.821428,5.916238 9.821428,13.214286 z"
       sodipodi:ry="13.214286"
       sodipodi:rx="9.8214283"
       sodipodi:cy="83.035713"
       sodipodi:cx="63.392857"
       id="path3806"
       style="fill:#ffffff;fill-opacity:1;stroke:#000000;stroke-width:1;stroke-linecap:butt;stroke-linejoin:round;stroke-miterlimit:4;stroke-opacity:1;stroke-dasharray:none"
       sodipodi:type="arc"
       transform="translate(-31.181031,-9.1652675)" />
  </g>
  <path
     style="fill:#878787;fill-opacity:1;stroke:#000000;stroke-width:2.0796597px;stroke-linecap:butt;stroke-linejoin:miter;stroke-opacity:1"
     d="m 249.73915,158.29178 -2.9749,16.86641 c 0,0 3.94005,-0.85426 7.42733,-0.37138 3.48734,0.48289 8.71358,4.88008 8.54148,9.65557 -0.17218,4.77547 -18.34047,18.11257 -23.02479,17.82566 -4.68436,-0.28693 -10.65501,-5.07993 -11.14103,-9.2842 -0.48602,-4.20428 4.4564,-8.1701 4.4564,-8.1701 l -22.65343,-6.31325 -7.056,16.34019 -6.31324,-3.71369 4.08503,-18.56838 -11.88376,-0.37137 -5.94189,12.99786 -34.5372,-12.62649 -29.70943,0.37137 c 0,0 0.0704,37.58074 -16.71155,33.79445 -16.781903,-3.78627 1.48547,-38.62224 1.48547,-38.62224 l -10.769661,-3.71367 -4.827788,5.94188 -8.541455,-0.37137 -6.89186,-21.84343"
     id="path2997"
     inkscape:connector-curvature="0"
     sodipodi:nodetypes="cczzzzccccccccczccccc"
     inkscape:export-filename="/home/neale/src/scoreboard/path3929.png"
     inkscape:export-xdpi="59.299999"
     inkscape:export-ydpi="59.299999" />
  <g
     id="g3792"
     transform="matrix(2.0796598,0,0,2.0796598,39.912372,35.89525)"
     inkscape:export-filename="/home/neale/src/scoreboard/path3929.png"
     inkscape:export-xdpi="59.299999"
     inkscape:export-ydpi="59.299999">
    <path
       style="fill:#ffffff;fill-opacity:1;stroke:#000000;stroke-width:1px;stroke-linecap:butt;stroke-linejoin:miter;stroke-opacity:1"
       d="m 65.041209,69.426025 11.07471,0.144477 c 8.214286,3.035714 12.606433,26.425486 -9.00071,25.7112"
       id="path3786"
       inkscape:connector-curvature="0"
       sodipodi:nodetypes="ccc" />
    <path
       d="m 73.214285,83.035713 c 0,7.298049 -4.397203,13.214286 -9.821428,13.214286 -5.424225,0 -9.821429,-5.916237 -9.821429,-13.214286 0,-7.298048 4.397204,-13.214286 9.821429,-13.214286 5.424225,0 9.821428,5.916238 9.821428,13.214286 z"
       sodipodi:ry="13.214286"
       sodipodi:rx="9.8214283"
       sodipodi:cy="83.035713"
       sodipodi:cx="63.392857"
       id="path3788"
       style="fill:#ffffff;fill-opacity:1;stroke:#000000;stroke-width:1;stroke-linecap:butt;stroke-linejoin:round;stroke-miterlimit:4;stroke-opacity:1;stroke-dasharray:none"
       sodipodi:type="arc"
       transform="translate(0.937347,-0.429498)" />
  </g>
  <g
     id="g3796"
     transform="matrix(2.0796598,0,0,2.0796598,-68.898392,25.868319)"
     inkscape:export-filename="/home/neale/src/scoreboard/path3929.png"
     inkscape:export-xdpi="59.299999"
     inkscape:export-ydpi="59.299999">
    <path
       sodipodi:nodetypes="ccc"
       inkscape:connector-curvature="0"
       id="path3798"
       d="m 65.041209,69.426025 11.07471,0.144477 c 8.214286,3.035714 12.606433,26.425486 -9.00071,25.7112"
       style="fill:#ffffff;fill-opacity:1;stroke:#000000;stroke-width:1px;stroke-linecap:butt;stroke-linejoin:miter;stroke-opacity:1" />
    <path
       transform="translate(0.937347,-0.429498)"
       sodipodi:type="arc"
       style="fill:#ffffff;fill-opacity:1;stroke:#000000;stroke-width:1;stroke-linecap:butt;stroke-linejoin:round;stroke-miterlimit:4;stroke-opacity:1;stroke-dasharray:none"
       id="path3800"
       sodipodi:cx="63.392857"
       sodipodi:cy="83.035713"
       sodipodi:rx="9.8214283"
       sodipodi:ry="13.214286"
       d="m 73.214285,83.035713 c 0,7.298049 -4.397203,13.214286 -9.821428,13.214286 -5.424225,0 -9.821429,-5.916237 -9.821429,-13.214286 0,-7.298048 4.397204,-13.214286 9.821429,-13.214286 5.424225,0 9.821428,5.916238 9.821428,13.214286 z" />
  </g>
  <path
     sodipodi:nodetypes="ccccc"
     inkscape:connector-curvature="0"
     id="path3814"
     d="m 69.224636,135.9029 c 0,0 -0.829261,15.47657 -0.08293,18.45866 10.383488,2.44396 54.219704,-0.74272 54.219704,-0.74272 30.45217,15.22609 123.29413,8.91285 140.00568,1.11411 0,-4.82778 -2.45896,-6.26819 -4.13012,-7.38232"
     style="fill:#020202;fill-opacity:1;stroke:#000000;stroke-width:2.0796597px;stroke-linecap:butt;stroke-linejoin:miter;stroke-opacity:1"
     inkscape:export-filename="/home/neale/src/scoreboard/path3929.png"
     inkscape:export-xdpi="59.299999"
     inkscape:export-ydpi="59.299999" />
  <path
     style="fill:#ffffff;fill-opacity:1;stroke:#000000;stroke-width:2.0796597px;stroke-linecap:butt;stroke-linejoin:miter;stroke-opacity:1"
     d="m 71.478641,73.403403 c -7.554791,8.849115 -9.910432,44.060807 -6.801116,65.727567 41.232025,6.60901 140.041015,27.85743 194.559405,8.21966 -0.3643,-14.1232 -2.63144,-24.92669 -30.66969,-26.04078 -62.0591,-14.51889 -79.74702,-50.302302 -77.73784,-61.729441 0,0 -12.43084,-0.853762 -20.04388,-2.52492 -13.55493,8.541467 -47.237426,17.276335 -59.306879,16.347914 z"
     id="path2989"
     inkscape:connector-curvature="0"
     sodipodi:nodetypes="ccccccc"
     inkscape:export-filename="/home/neale/src/scoreboard/path3929.png"
     inkscape:export-xdpi="59.299999"
     inkscape:export-ydpi="59.299999" />
  <path
     style="fill:#ffffff;fill-opacity:1;stroke:#000000;stroke-width:2.0796597px;stroke-linecap:butt;stroke-linejoin:miter;stroke-opacity:1"
     d="m 125.27419,84.64548 c 40.1773,42.54065 83.59829,51.36979 103.29305,36.66437 0,0 -4.58612,-6.75997 -8.17009,-8.1701 -3.22749,-1.26985 -7.44012,2.18196 -10.3983,0.37139 -1.74771,-1.06971 -0.87127,-4.46982 -2.59958,-5.57054 -2.61032,-1.66241 -6.61693,1.56943 -9.2842,0 -2.19688,-1.29265 -1.48519,-5.44722 -3.71367,-6.68463 -2.16721,-1.20334 -5.35921,1.738 -7.42737,0.37138 -2.09122,-1.38186 -0.47778,-5.721521 -2.59957,-7.055993 -2.21048,-1.390265 -5.56932,2.102464 -7.79871,0.742733 -2.27651,-1.38844 -0.98504,-5.647902 -2.97096,-7.427343 -1.72232,-1.543252 -5.28522,-0.01584 -6.68462,-1.856843 -2.62178,-3.449325 0,-12.997874 0,-12.997874"
     id="path2999"
     inkscape:connector-curvature="0"
     sodipodi:nodetypes="ccaaaaaaaaaac"
     inkscape:export-filename="/home/neale/src/scoreboard/path3929.png"
     inkscape:export-xdpi="59.299999"
     inkscape:export-ydpi="59.299999" />
  <path
     style="fill:#ffffff;fill-opacity:1;stroke:#000000;stroke-width:2.0796597px;stroke-linecap:butt;stroke-linejoin:miter;stroke-opacity:1"
     d="m 151.87978,56.691854 15.04039,16.340176 c 0,0 -49.48334,34.18152 -57.94487,24.089098 -8.46151,-10.092404 42.90448,-40.429274 42.90448,-40.429274 z"
     id="path3881"
     inkscape:connector-curvature="0"
     sodipodi:nodetypes="cczc"
     inkscape:export-filename="/home/neale/src/scoreboard/path3929.png"
     inkscape:export-xdpi="59.299999"
     inkscape:export-ydpi="59.299999" />
  <path
     transform="matrix(2.0796598,0,0,2.0796598,32.559674,33.794472)"
     d="m 129.8046,56.714455 a 72.478447,72.478447 0 1 1 -144.95689,0 72.478447,72.478447 0 1 1 144.95689,0 z"
     sodipodi:ry="72.478447"
     sodipodi:rx="72.478447"
     sodipodi:cy="56.714455"
     sodipodi:cx="57.326157"
     id="path3929"
     style="fill:none;stroke:#000000;stroke-width:1;stroke-linecap:butt;stroke-linejoin:round;stroke-miterlimit:4;stroke-opacity:1;stroke-dasharray:none"
     sodipodi:type="arc"
     inkscape:export-xdpi="59.299999"
     inkscape:export-ydpi="59.299999" />
</svg>
