<?xml version="1.0" encoding="UTF-8" standalone="no"?>
<!-- Created with Inkscape (http://www.inkscape.org/) -->

<svg
   xmlns:dc="http://purl.org/dc/elements/1.1/"
   xmlns:cc="http://creativecommons.org/ns#"
   xmlns:rdf="http://www.w3.org/1999/02/22-rdf-syntax-ns#"
   xmlns:svg="http://www.w3.org/2000/svg"
   xmlns="http://www.w3.org/2000/svg"
   xmlns:sodipodi="http://sodipodi.sourceforge.net/DTD/sodipodi-0.dtd"
   xmlns:inkscape="http://www.inkscape.org/namespaces/inkscape"
   width="468.20706"
   height="468.20715"
   id="svg2"
   version="1.1"
   inkscape:version="0.48.2 r9819"
   sodipodi:docname="jammer.svg"
   inkscape:export-filename="/home/neale/src/scoreboard/jammer.png"
   inkscape:export-xdpi="38.439999"
   inkscape:export-ydpi="38.439999">
  <defs
     id="defs4" />
  <sodipodi:namedview
     id="base"
     pagecolor="#000000"
     bordercolor="#666666"
     borderopacity="1.0"
     inkscape:pageopacity="0"
     inkscape:pageshadow="2"
     inkscape:zoom="0.81454783"
     inkscape:cx="205.75501"
     inkscape:cy="242.92901"
     inkscape:document-units="px"
     inkscape:current-layer="layer1"
     showgrid="false"
     fit-margin-top="0"
     fit-margin-left="0"
     fit-margin-right="0"
     fit-margin-bottom="0"
     inkscape:window-width="1020"
     inkscape:window-height="580"
     inkscape:window-x="0"
     inkscape:window-y="16"
     inkscape:window-maximized="0" />
  <metadata
     id="metadata7">
    <rdf:RDF>
      <cc:Work
         rdf:about="">
        <dc:format>image/svg+xml</dc:format>
        <dc:type
           rdf:resource="http://purl.org/dc/dcmitype/StillImage" />
        <dc:title></dc:title>
      </cc:Work>
    </rdf:RDF>
  </metadata>
  <g
     inkscape:label="Layer 1"
     inkscape:groupmode="layer"
     id="layer1"
     transform="translate(-134.45868,-281.6472)">
    <g
       id="g3838">
      <path
         id="path2985"
         transform="translate(134.45868,281.6472)"
         d="M 234.0625 0 C 112.84216 -0.10385806 10.141595 93.29269 0.6875 216.15625 C -4.58199 284.63757 20.18403 348.50149 63.875 394.8125 C 102.42586 435.67517 155.73155 462.85044 216.15625 467.5 C 345.06228 477.41904 457.58095 380.96852 467.5 252.0625 C 477.41905 123.15647 380.96853 10.60655 252.0625 0.6875 C 246.02003 0.22254453 240.02416 0.0051077733 234.0625 0 z M 209.0625 19.625 C 217.07438 19.685602 223.88652 23.758135 227.625 30.875 C 229.19802 34.039908 230.47002 38.320367 231.09375 43.03125 C 231.1746 43.64192 231.22988 44.066587 231.28125 45.125 L 199.6875 49.3125 C 200.45106 53.738566 201.16614 55.780386 202.53125 57.375 C 204.62254 59.761146 207.60421 60.868273 211.09375 60.40625 C 215.54292 59.817171 218.66987 57.166368 219.65625 53.21875 L 231.6875 51.625 C 230.20746 61.230357 222.46212 68.383631 211.90625 69.78125 C 198.55875 71.548487 189.12325 63.404773 187.125 48.3125 C 185.03435 32.522318 192.04052 21.634088 205.5625 19.84375 C 206.75113 19.686373 207.91795 19.616343 209.0625 19.625 z M 262.03125 20.25 C 264.04517 20.198161 266.21793 20.382829 268.59375 20.78125 C 281.2648 22.906164 286.97596 28.859568 285.375 38.40625 L 281 64.4375 C 280.59248 66.867564 280.97755 68.26502 282.8125 70.625 L 282.5625 72.125 L 269.375 69.90625 C 268.47962 68.328437 268.37373 67.398814 268.78125 64.96875 C 263.78637 68.681783 258.64478 70.154502 253.4375 69.28125 C 249.27168 68.582648 245.44344 66.259647 243.21875 63.03125 C 241.44201 60.324118 240.89301 56.835999 241.5625 52.84375 C 242.97426 44.425313 248.26421 40.379884 257.8125 40.375 L 262.84375 40.34375 C 268.99222 40.393322 268.98674 40.3726 270.78125 39.78125 C 272.1995 39.305259 273.20677 38.062184 273.46875 36.5 C 273.9927 33.375631 271.9053 31.410927 267.21875 30.625 C 261.23038 29.62076 258.98505 30.866751 257.5625 35.625 L 245.84375 33.65625 C 247.95655 24.94827 253.30425 20.474636 262.03125 20.25 z M 129.71875 27.25 L 152.65625 75.21875 L 180.34375 61.96875 L 185.09375 71.875 L 145.46875 90.84375 L 117.8125 32.96875 L 129.71875 27.25 z M 207.75 29.125 C 207.37204 29.128925 207.00667 29.168216 206.625 29.21875 C 201.21621 29.934885 198.61925 33.898732 198.78125 41.15625 L 217.5625 38.6875 C 216.87341 35.494324 216.08386 33.719614 214.71875 32.125 C 212.90909 30.18979 210.3957 29.097528 207.75 29.125 z M 347.09375 31.8125 L 358.03125 37.5 L 328.5 94.4375 L 317.5625 88.75 L 319.78125 84.46875 C 314.89963 87.190699 310.23377 87.246091 305 84.53125 C 299.84434 81.856929 296.0645 76.498774 295.28125 70.9375 C 294.57611 65.416746 295.85454 58.76497 298.8125 53.0625 C 305.41726 40.329588 318.07928 34.616668 328.15625 39.84375 C 333.39002 42.558591 336.04777 46.394784 336.59375 52.03125 L 347.09375 31.8125 z M 271.625 47.53125 C 270.11996 47.992687 269.56304 48.05599 266.25 48.125 L 261.9375 48.21875 C 256.72914 48.416062 254.54878 49.823653 253.9375 53.46875 C 253.35533 56.940271 255.51471 59.534702 259.59375 60.21875 C 265.7557 61.252099 269.88361 57.842329 271.0625 50.8125 L 271.625 47.53125 z M 321.59375 49.25 C 317.24464 49.410454 312.789 52.860048 309.75 58.71875 C 305.73852 66.452236 306.68813 73.788599 312.15625 76.625 C 317.62437 79.461401 324.12279 76.09287 328.09375 68.4375 C 332.26731 60.39155 331.38999 53.095671 325.84375 50.21875 C 324.47672 49.50965 323.04345 49.196515 321.59375 49.25 z M 234.3125 69.9375 C 251.75884 69.964614 269.50415 72.790866 286.9375 78.71875 C 372.76322 107.90218 418.68344 201.11178 389.5 286.9375 C 360.31657 372.76321 267.10696 418.68343 181.28125 389.5 C 155.80174 380.83617 133.80536 366.52169 116.28125 348.4375 C 74.77678 305.60651 58.16789 241.59621 78.6875 181.25 C 101.94305 112.85763 165.86916 69.831131 234.3125 69.9375 z M 370 355.71875 L 378.375 365 C 376.95594 365.92279 376.23083 366.42912 375.25 367.3125 C 369.88812 372.14166 369.63959 377.23187 374.46875 382.59375 L 391.34375 401.375 L 382.21875 409.625 L 350.40625 374.3125 L 359.5625 366.0625 L 365.8125 373 C 363.47503 366.45985 364.65887 360.42535 368.84375 356.65625 C 369.10531 356.42068 369.418 356.1245 370 355.71875 z M 127.25 360.25 L 137.28125 368.84375 L 106.34375 404.8125 C 98.539648 413.88602 88.440839 414.14383 78.5 405.59375 C 73.896524 401.63432 71.309058 397.10159 70.6875 392.15625 C 70.113991 387.02009 71.607634 382.85175 75.96875 377.78125 L 80.09375 372.96875 L 90.125 381.5625 L 86.09375 386.25 C 82.249082 390.72004 82.259629 393.94791 86.0625 397.21875 C 89.531786 400.20267 93.187679 399.88819 96.34375 396.21875 L 127.25 360.25 z M 337.0625 386.375 C 341.85503 386.35384 346.50955 388.02225 350.46875 391.34375 C 353.12478 393.6754 355.91712 397.12783 358.28125 401.25 C 358.58771 401.78436 358.83222 402.16518 359.28125 403.125 L 331.625 419 C 334.01047 422.8056 335.44452 424.41741 337.3125 425.375 C 340.15264 426.78949 343.35279 426.68871 346.40625 424.9375 C 350.29942 422.70471 352.17858 419.08924 351.59375 415.0625 L 362.125 409 C 364.39928 418.44887 359.95548 428.01509 350.71875 433.3125 C 339.03925 440.01088 327.19899 436.01873 319.625 422.8125 C 311.70077 408.99558 314.07408 396.31719 325.90625 389.53125 C 329.54655 387.44348 333.33498 386.39146 337.0625 386.375 z M 138.625 390.5625 C 142.08552 390.57631 145.97462 391.65241 150.28125 393.8125 C 161.7656 399.57274 165.43366 406.94115 161.09375 415.59375 L 149.28125 439.1875 C 148.17655 441.38998 148.12844 442.86073 149.1875 445.65625 L 148.5 447 L 136.5625 441 C 136.17118 439.22854 136.3328 438.32748 137.4375 436.125 C 131.57102 438.20343 126.2196 438.08597 121.5 435.71875 C 117.72432 433.82497 114.76969 430.45893 113.59375 426.71875 C 112.6925 423.60859 113.15388 420.11836 114.96875 416.5 C 118.79576 408.86998 125.06072 406.60058 134.1875 409.40625 L 139 410.8125 C 144.86153 412.66955 144.86092 412.66198 146.75 412.625 C 148.24553 412.58753 149.57108 411.69713 150.28125 410.28125 C 151.70158 407.44949 150.31014 404.97425 146.0625 402.84375 C 140.63496 400.12144 138.10378 400.62122 135.34375 404.75 L 124.71875 399.4375 C 128.24353 393.51412 132.85747 390.53949 138.625 390.5625 z M 334.6875 396.53125 C 333.21269 396.59087 331.77339 397.0151 330.4375 397.78125 C 325.70463 400.49563 324.8158 405.15888 327.71875 411.8125 L 344.125 402.375 C 342.27612 399.68189 340.89923 398.36384 339.03125 397.40625 C 337.65496 396.77534 336.16231 396.47163 334.6875 396.53125 z M 294.9375 405.28125 C 295.33662 405.26598 295.73924 405.26906 296.125 405.28125 C 302.81141 405.49257 307.51281 409.59835 309.09375 416.9375 L 316.15625 449.8125 L 304.125 452.40625 L 297.4375 421.4375 C 296.64066 417.73836 293.637 415.94153 289.59375 416.8125 C 284.43215 417.92437 282.08944 422.04099 283.3125 427.71875 L 289.3125 455.59375 L 277.28125 458.1875 L 270.59375 427.21875 C 269.79691 423.51961 266.8245 421.72278 262.78125 422.59375 C 257.61965 423.70562 255.24569 427.82224 256.46875 433.5 L 262.46875 461.375 L 250.4375 463.96875 L 240.4375 417.53125 L 252.375 414.9375 L 253.625 420.71875 C 256.56301 415.13485 259.60385 412.58643 264.9375 411.4375 C 270.70128 410.19591 275.91197 411.6882 279.09375 415.59375 C 281.66912 409.99795 285.33769 407.04137 291.1875 405.78125 C 292.49403 405.4998 293.74013 405.32707 294.9375 405.28125 z M 171.4375 406.96875 L 183.53125 408.875 L 182.625 414.6875 C 187.37867 410.53847 191.14209 409.27361 196.53125 410.125 C 202.35502 411.04505 206.62787 414.3037 208.1875 419.09375 C 212.60722 414.80287 217.12056 413.37871 223.03125 414.3125 C 232.41881 415.79557 237.12937 422.0607 235.6875 431.1875 L 230.4375 464.40625 L 218.28125 462.46875 L 223.21875 431.1875 C 223.80923 427.44986 221.64783 424.70791 217.5625 424.0625 C 212.34719 423.23857 208.68757 426.20066 207.78125 431.9375 L 203.3125 460.125 L 191.15625 458.1875 L 196.09375 426.90625 C 196.68423 423.16861 194.55408 420.42666 190.46875 419.78125 C 185.25344 418.95732 181.56257 421.91941 180.65625 427.65625 L 176.21875 455.8125 L 164.03125 453.90625 L 171.4375 406.96875 z M 131.8125 417.4375 C 129.32057 417.43077 127.76423 418.47869 126.625 420.75 C 125.04685 423.8964 126.33423 427.02068 130.03125 428.875 C 135.61611 431.67621 140.5855 429.62146 143.78125 423.25 L 145.28125 420.28125 C 143.70706 420.27927 143.15534 420.19042 139.96875 419.28125 L 135.84375 418.09375 C 134.27009 417.67363 132.9452 417.44056 131.8125 417.4375 z "
         style="opacity:0.98000004;fill:#ffff00;stroke:none" />
      <path
         transform="matrix(0.60325098,0,0,0.60325098,479.02668,242.76538)"
         inkscape:transform-center-y="-15.722121"
         d="m -179.80714,181.42368 70.06618,176.49036 189.503954,12.09839 -146.200672,121.17541 47.053694,183.96758 -160.423166,-101.59984 -160.42317,101.59983 47.05371,-183.96757 -146.20067,-121.17543 189.50395,-12.09837 z"
         inkscape:randomized="0"
         inkscape:rounded="0"
         inkscape:flatsided="false"
         sodipodi:arg2="-0.94247777"
         sodipodi:arg1="-1.5707963"
         sodipodi:r2="119.20371"
         sodipodi:r1="272.92819"
         sodipodi:cy="454.35187"
         sodipodi:cx="-179.80714"
         sodipodi:sides="5"
         id="path3011"
         style="opacity:0.98000004;fill:#ffff00;fill-opacity:1;stroke:none"
         sodipodi:type="star" />
    </g>
    <path
       transform="matrix(-0.29350396,-0.42066416,0.42066416,-0.29350396,235.52851,817.65157)"
       d="m 654.28571,549.50507 c 0,176.73112 -143.26888,320 -320,320 -176.73112,0 -320.000004,-143.26888 -320.000004,-320 0,-176.73112 143.268884,-320 320.000004,-320 176.73112,0 320,143.26888 320,320 z"
       sodipodi:ry="320"
       sodipodi:rx="320"
       sodipodi:cy="549.50507"
       sodipodi:cx="334.28571"
       id="path2987"
       style="opacity:0.98000003999999996;fill:none;stroke:none"
       sodipodi:type="arc" />
  </g>
</svg>
